<?xml version="1.0" encoding="iso-8859-1"?>
<!-- Generator: Adobe Illustrator 19.0.0, SVG Export Plug-In . SVG Version: 6.00 Build 0)  -->
<svg version="1.1" id="Layer_1" xmlns="http://www.w3.org/2000/svg" xmlns:xlink="http://www.w3.org/1999/xlink" x="0px" y="0px"
	 viewBox="0 0 511.999 511.999" style="enable-background:new 0 0 511.999 511.999;" xml:space="preserve">
<path style="fill:#EFF2FA;" d="M504.492,447.694c0.033,17.619-14.355,32.061-31.974,32.094l-432.464,0.813
	c-17.619,0.033-32.061-14.355-32.094-31.974L7.508,208.369c-0.033-17.619,14.355-32.061,31.974-32.094l432.464-0.813
	c17.619-0.033,32.061,14.355,32.094,31.974L504.492,447.694z"/>
<path style="fill:#A5D76E;" d="M232.139,416.171c0.017,8.809-7.178,16.03-15.987,16.047L71.997,432.49
	c-8.809,0.017-16.031-7.178-16.047-15.987l-0.331-176.189c-0.017-8.809,7.178-16.031,15.987-16.047l144.155-0.271
	c8.809-0.017,16.031,7.178,16.047,15.987L232.139,416.171z"/>
<path style="fill:#F0C087;" d="M143.76,264.174c-17.692,0.033-32.007,14.402-31.974,32.094l0.015,8.009
	c0.033,17.692,14.402,32.007,32.094,31.974s32.007-14.402,31.974-32.094l-0.015-8.009
	C175.821,278.455,161.452,264.141,143.76,264.174z"/>
<path style="fill:#707487;" d="M176.032,352.471l-6.797,0.013c-5.839,9.529-14.931,15.783-25.28,15.802
	c-10.348,0.019-19.464-6.2-25.339-15.707l-6.797,0.013c-14.193,0.027-23.928,14.061-23.91,23.809l0.033,17.347
	c0.007,3.674,3.018,6.674,6.692,6.667l98.795-0.186c3.67-0.007,6.64-2.988,6.633-6.658l-0.033-17.38
	C200.012,366.442,190.225,352.444,176.032,352.471z"/>
<path d="M511.549,207.422c-0.041-21.762-17.779-39.468-39.617-39.468l-174.08,0.327L428.943,36.697
	c2.926-2.937,2.917-7.691-0.02-10.617c-2.938-2.926-7.692-2.919-10.618,0.02L276.615,168.322l-41.831,0.079L92.562,26.711
	c-2.938-2.926-7.691-2.919-10.618,0.02c-2.926,2.937-2.917,7.691,0.02,10.617l131.584,131.091l-174.081,0.327
	c-10.526,0.02-20.439,4.161-27.911,11.662C4.084,187.929-0.02,197.857,0,208.384l0.451,240.257
	c0.041,21.762,17.779,39.468,39.541,39.468c0.005,0,0.07,0,0.075,0l432.464-0.813c10.527-0.02,20.439-4.161,27.911-11.662
	c7.472-7.501,11.576-17.429,11.556-27.955L511.549,207.422z M489.805,465.037c-4.641,4.659-10.786,7.232-17.302,7.244L40.04,473.093
	l-0.047,7.508v-7.508c-13.499,0-24.5-10.982-24.525-24.48l-0.451-240.258c-0.012-6.516,2.537-12.67,7.179-17.329
	c4.641-4.659,10.786-7.231,17.302-7.244l222.132-0.417l-11.187,11.23c-2.926,2.937-2.917,7.691,0.02,10.617
	c1.466,1.46,3.382,2.189,5.299,2.189c1.926,0,3.852-0.737,5.319-2.209l21.785-21.867l189.143-0.355
	c13.497,0,24.5,10.982,24.525,24.48l0.451,240.258C496.996,454.224,494.447,460.378,489.805,465.037z"/>
<path d="M143.834,343.759c0.005,0,0.071,0,0.076,0c10.562-0.02,20.484-4.151,27.939-11.634c7.454-7.483,11.549-17.421,11.529-27.982
	l-0.015-8.009c-0.041-21.763-17.779-39.468-39.617-39.468c-10.562,0.02-20.484,4.151-27.939,11.634
	c-7.454,7.482-11.549,17.42-11.529,27.982l0.015,8.009C104.333,326.053,122.071,343.759,143.834,343.759z M126.444,278.898
	c4.624-4.641,10.779-7.204,17.377-7.216c13.497,0,24.499,10.982,24.525,24.48l0.015,8.009c0.012,6.551-2.527,12.715-7.151,17.356
	c-4.624,4.641-10.779,7.204-17.33,7.216l-0.047,7.508v-7.508c-13.497,0-24.499-10.982-24.525-24.48l-0.015-8.009
	C119.281,289.702,121.821,283.539,126.444,278.898z"/>
<path d="M176.017,344.963l-6.797,0.013c-2.607,0.005-5.025,1.362-6.388,3.586c-4.749,7.75-11.634,12.203-18.926,12.217
	c-7.243,0-14.133-4.427-18.902-12.146c-1.368-2.214-3.785-3.562-6.387-3.562c-0.005,0-0.01,0-0.014,0l-6.797,0.013
	c-17.718,0.033-31.43,16.869-31.404,31.331l0.033,17.346c0.015,7.808,6.379,14.161,14.187,14.161c0.005,0,0.022,0,0.027,0
	l98.795-0.186c7.804-0.015,14.141-6.376,14.127-14.18l-0.033-17.381C207.511,361.741,193.759,344.963,176.017,344.963z
	 M95.45,392.903l-0.031-16.518c-0.01-5.581,6.375-16.267,16.416-16.286l2.822-0.005c7.497,10.032,17.969,15.7,29.313,15.7
	c11.313-0.021,21.78-5.728,29.254-15.809l2.849-0.005c10.025,0,16.44,10.653,16.451,16.224l0.031,16.518L95.45,392.903z"/>
<path d="M215.748,216.487l-144.155,0.271c-12.972,0.024-23.505,10.597-23.481,23.569l0.331,176.189
	c0.024,12.948,10.577,23.481,23.525,23.481c0.004,0,0.04,0,0.044,0l144.155-0.271c12.972-0.024,23.505-10.597,23.481-23.569
	l-0.331-176.189C239.292,227.021,228.739,216.487,215.748,216.487z M216.138,424.71l-144.155,0.271l-0.016,7.508v-7.508
	c-4.683,0-8.5-3.81-8.509-8.493l-0.331-176.189c-0.009-4.692,3.801-8.516,8.493-8.525l144.171-0.271c4.683,0,8.5,3.81,8.509,8.493
	l0.331,176.188C224.64,420.877,220.83,424.701,216.138,424.71z"/>
<path d="M263.842,247.43c0.005,0,0.01,0,0.015,0l144.155-0.271c4.146-0.008,7.502-3.376,7.494-7.522
	c-0.008-4.141-3.368-7.494-7.508-7.494c-0.005,0-0.01,0-0.015,0l-144.155,0.271c-4.146,0.008-7.502,3.376-7.494,7.522
	C256.342,244.078,259.702,247.43,263.842,247.43z"/>
<path d="M456.11,264.087c-0.005,0-0.01,0-0.015,0l-192.206,0.361c-4.146,0.008-7.502,3.376-7.494,7.522
	c0.008,4.141,3.368,7.494,7.508,7.494c0.005,0,0.01,0,0.015,0l192.206-0.361c4.146-0.008,7.502-3.376,7.494-7.522
	C463.609,267.439,460.249,264.087,456.11,264.087z"/>
<path d="M296.088,359.49c0.005,0,0.01,0,0.015,0l72.077-0.135c4.146-0.008,7.502-3.376,7.494-7.522
	c-0.008-4.141-3.368-7.494-7.508-7.494c-0.005,0-0.01,0-0.015,0l-72.077,0.135c-4.146,0.008-7.502,3.376-7.494,7.522
	C288.588,356.138,291.948,359.49,296.088,359.49z"/>
<path d="M264.051,359.547c1.982,0,3.914-0.801,5.316-2.192c1.392-1.401,2.192-3.334,2.192-5.316c0-1.972-0.801-3.914-2.192-5.306
	c-1.401-1.401-3.334-2.202-5.316-2.202c-1.972,0-3.904,0.801-5.306,2.202c-1.401,1.401-2.202,3.334-2.202,5.306
	c0,1.972,0.801,3.914,2.202,5.316C260.146,358.748,262.078,359.547,264.051,359.547z"/>
<path d="M424.287,376.267c-0.005,0-0.01,0-0.015,0l-128.138,0.24c-4.146,0.008-7.502,3.376-7.494,7.522
	c0.008,4.141,3.368,7.494,7.508,7.494c0.005,0,0.01,0,0.015,0l128.138-0.24c4.146-0.008,7.502-3.376,7.494-7.522
	C431.786,379.62,428.426,376.267,424.287,376.267z"/>
<path d="M264.11,391.582c1.982,0,3.914-0.801,5.316-2.192c1.392-1.402,2.192-3.334,2.192-5.316c0-1.972-0.801-3.904-2.192-5.306
	c-1.401-1.402-3.334-2.202-5.316-2.202c-1.972,0-3.904,0.801-5.306,2.202c-1.401,1.401-2.202,3.334-2.202,5.306
	c0,1.982,0.801,3.914,2.202,5.316C260.206,390.782,262.139,391.582,264.11,391.582z"/>
<path d="M400.321,408.347c-0.005,0-0.01,0-0.015,0l-104.112,0.196c-4.146,0.008-7.502,3.376-7.494,7.522
	c0.008,4.141,3.368,7.494,7.508,7.494c0.005,0,0.01,0,0.015,0l104.112-0.196c4.146-0.007,7.502-3.376,7.494-7.522
	C407.82,411.699,404.461,408.347,400.321,408.347z"/>
<path d="M264.17,408.6c-1.972,0-3.904,0.801-5.306,2.202c-1.402,1.392-2.202,3.334-2.202,5.306c0,1.982,0.801,3.914,2.202,5.316
	c1.401,1.392,3.334,2.192,5.306,2.192c1.982,0,3.914-0.801,5.316-2.192c1.392-1.401,2.192-3.334,2.192-5.316
	c0-1.972-0.801-3.904-2.192-5.306C268.084,409.402,266.152,408.6,264.17,408.6z"/>
<g>
</g>
<g>
</g>
<g>
</g>
<g>
</g>
<g>
</g>
<g>
</g>
<g>
</g>
<g>
</g>
<g>
</g>
<g>
</g>
<g>
</g>
<g>
</g>
<g>
</g>
<g>
</g>
<g>
</g>
</svg>
