<?xml version="1.0" encoding="iso-8859-1"?>
<!-- Generator: Adobe Illustrator 19.0.0, SVG Export Plug-In . SVG Version: 6.00 Build 0)  -->
<svg version="1.1" id="Layer_1" xmlns="http://www.w3.org/2000/svg" xmlns:xlink="http://www.w3.org/1999/xlink" x="0px" y="0px"
	 viewBox="0 0 489.6 489.6" style="enable-background:new 0 0 489.6 489.6;" xml:space="preserve">
<path style="fill:#EE5656;" d="M447.2,226.2c-1.2,0-3-1-3-3V191H415v32.2c0,2-1,3-3,3h-32.2v29.2H412c2,0,3,1,3,3v32.2h29.2v-32.2
	c0-2,1.8-3,3-3h31.4v-29.2H447.2z"/>
<path style="fill:#42210B;" d="M489.6,224v34.4c0,4-3.2,8-8,8h-26.4v27.2c0,4.8-4,8-8,8H412c-4,0-8-3.2-8-8v-27.2h-27.2
	c-4,0-8-4-8-8v-35.2c0-4,4-8,8-8H404V188c0-4,4-8,8-8h35.2c4,0,8,4,8,8v27.2h27.2C486.4,216,489.6,219.2,489.6,224z M473.6,250.4
	v-19.2h-26.4c-4,0-8-3.2-8-8V196H420v27.2c0,4.8-3.2,8-8,8h-27.2v19.2H412c4.8,0,8,3.2,8,8v27.2h19.2v-27.2c0-4.8,4-8,8-8H473.6z"/>
<g>
	<path style="fill:#EE5656;" d="M322.6,228.9l-5,0.4v-3.9h-89v41.2h48.2c0.5,0,1.7,0.5,2.9,1.7c0.2,0.2,0.6,0.7,0.4,1.3l-0.1,0.2
		l-0.1,0.3c-11.6,52.4-59,90.5-112.7,90.5c-63.4,0-115-51.6-115-115s51.6-115,115-115c23.9,0,47.8,7.9,67.4,22.2l3.5,2.5l29.4-29.4
		l-4.4-3.5c-27.1-21.3-61.1-33-95.9-33C81.1,89.4,11,159.5,11,245.6s70.1,156.2,156.2,156.2c37.2,0,73.3-13.5,101.8-38
		c28.4-24.5,47.2-58.2,52.8-95v-0.1l0.2-2.3c0.7-7.2,1.4-13.9,1.4-20.7C323.4,239.8,323.4,234.8,322.6,228.9z"/>
	<path style="fill:#EE5656;" d="M317.6,229.6c0.8,5.6,0.8,10.4,0.8,16c0,7.2-0.8,14.4-1.6,22.4c-11.2,73.6-75.2,128.8-149.6,128.8
		C84,396.8,16,328.8,16,245.6S84,94.4,167.2,94.4c33.6,0,66.4,11.2,92.8,32l-22.4,22.4c-20.8-15.2-45.6-23.2-70.4-23.2
		c-66.4,0-120,53.6-120,120s53.6,120,120,120c56,0,105.6-40,117.6-94.4c0.8-2.4,0-4.8-1.6-6.4c-1.6-1.6-4-3.2-6.4-3.2h-11.2h-32
		v-31.2h44h40V229.6z"/>
</g>
<path style="fill:#E94545;" d="M298.4,232.4l-0.8-3.8h-74.2v38.9h45.5c1.5,0,1.9,0.6,2.1,0.9l0.2,0.4l0.3,0.3c0.2,0.2,0.4,0.7,0.4,1
	l-0.1,0.1l-0.1,0.6c-10.2,49.4-54.6,85.3-105.6,85.3c-59.8,0-108.5-48.7-108.5-108.5s48.7-108.5,108.5-108.5
	c23.2,0,45.8,7.4,63.6,20.9l3.3,2.5l18.7-18.7l-4.1-3.3c-23.2-18.4-51.4-28.1-81.4-28.1c-35.6,0-69,13.8-94.1,38.9
	s-38.9,58.5-38.9,94.1s13.8,69,38.9,94.1c25.1,25.1,58.5,38.9,94.1,38.9s69-13.8,94.1-38.9c25.1-25.1,38.9-58.5,38.9-94.1
	C299.2,241.5,299.2,236.6,298.4,232.4z"/>
<path style="fill:#42210B;" d="M332.8,220c1.6,8,1.6,16.8,1.6,24.8c0,8-0.8,16-1.6,24.8c-12,81.6-83.2,142.4-165.6,142.4
	C75.2,412,0,336.8,0,244.8S75.2,77.6,167.2,77.6c40.8,0,79.2,14.4,110.4,41.6c1.6,1.6,2.4,3.2,2.4,5.6c0,2.4-0.8,4-2.4,5.6L244,164
	c-3.2,3.2-8,3.2-11.2,0.8c-18.4-15.2-42.4-24-66.4-24c-57.6,0-104,46.4-104,104s46.4,104,104,104c45.6,0,85.6-29.6,99.2-72.8H224
	c-4.8,0-8-3.2-8-8v-47.2c0-2.4,0.8-4,2.4-5.6s3.2-2.4,5.6-2.4l0,0h52h48C328.8,213.6,332,216,332.8,220z M318.4,244.8
	c0-5.6,0-10.4-0.8-16h-40.8h-44V260h32H276c2.4,0,4.8,0.8,6.4,3.2c1.6,1.6,2.4,4,1.6,6.4c-11.2,55.2-60.8,95.2-116.8,95.2
	c-66.4,0-120-53.6-120-120s53.6-120,120-120c25.6,0,50.4,8,70.4,23.2l22.4-22.4c-26.4-20.8-59.2-32-92.8-32
	C84,93.6,16,161.6,16,244.8S84,396,167.2,396c74.4,0,138.4-55.2,149.6-128.8C317.6,260,318.4,252.8,318.4,244.8z"/>
<g>
</g>
<g>
</g>
<g>
</g>
<g>
</g>
<g>
</g>
<g>
</g>
<g>
</g>
<g>
</g>
<g>
</g>
<g>
</g>
<g>
</g>
<g>
</g>
<g>
</g>
<g>
</g>
<g>
</g>
</svg>
