<?xml version="1.0" standalone="no"?>
<!DOCTYPE svg PUBLIC "-//W3C//DTD SVG 20010904//EN"
 "http://www.w3.org/TR/2001/REC-SVG-20010904/DTD/svg10.dtd">
<svg version="1.0" xmlns="http://www.w3.org/2000/svg"
 width="420.000000pt" height="420.000000pt" viewBox="0 0 420.000000 420.000000"
 preserveAspectRatio="xMidYMid meet">
<metadata>
Created by potrace 1.13, written by Peter Selinger 2001-2015
</metadata>
<g transform="translate(0.000000,420.000000) scale(0.100000,-0.100000)"
fill="#092E20" stroke="none">
<path d="M460 4190 c-8 -5 -25 -10 -38 -10 -12 0 -30 -4 -40 -9 -9 -5 -38 -19
-64 -31 -27 -13 -48 -27 -48 -32 0 -4 -6 -8 -14 -8 -42 0 -196 -196 -196 -250
0 -11 -4 -20 -9 -20 -5 0 -12 -17 -17 -37 -10 -49 -10 -3337 0 -3385 5 -21 12
-38 17 -38 5 0 9 -9 9 -20 0 -54 154 -250 196 -250 8 0 14 -4 14 -8 0 -13 106
-63 165 -78 47 -12 3297 -16 3309 -4 5 5 20 10 33 10 13 0 31 4 41 9 9 5 31
15 47 22 140 63 261 208 301 364 11 39 11 3331 0 3370 -40 156 -161 301 -301
364 -16 7 -38 17 -47 22 -10 5 -29 9 -42 9 -14 0 -28 5 -31 10 -8 14 -3264 14
-3285 0z m1834 -826 c14 -6 16 -110 16 -1074 0 -591 -4 -1071 -9 -1074 -4 -3
-64 -14 -132 -25 -391 -61 -679 -51 -902 33 -64 24 -126 54 -137 66 -3 3 -21
17 -40 30 -36 25 -110 100 -110 112 0 4 -6 13 -12 20 -36 39 -71 117 -98 218
-33 121 -33 327 0 454 22 86 94 246 111 246 5 0 9 6 9 14 0 28 174 186 205
186 4 0 19 9 33 19 36 25 159 66 247 81 64 11 313 11 355 -1 13 -3 15 39 18
336 1 187 4 346 7 353 3 9 55 12 214 12 115 0 216 -3 225 -6z m756 -244 l0
-240 -229 0 c-199 0 -230 2 -235 16 -3 9 -6 117 -6 240 l0 224 235 0 235 0 0
-240z m0 -1128 c0 -659 -5 -783 -39 -934 -13 -57 -48 -152 -72 -194 -36 -65
-44 -79 -55 -90 -5 -6 -25 -30 -44 -53 -19 -22 -37 -41 -41 -41 -4 0 -24 -16
-43 -35 -20 -19 -40 -35 -45 -35 -5 0 -16 -6 -23 -13 -18 -17 -113 -67 -128
-67 -6 0 -46 16 -88 36 -309 145 -332 157 -332 166 0 3 14 12 30 20 17 7 30
16 30 20 0 5 9 8 20 8 11 0 20 5 20 10 0 6 5 10 11 10 17 0 90 54 139 102 55
54 70 74 90 113 8 17 17 32 20 35 8 7 45 131 61 200 9 40 14 233 16 715 2 363
6 666 8 673 3 9 59 12 235 12 l230 0 0 -658z"/>
<path d="M1600 2296 c-82 -19 -130 -42 -169 -84 -58 -62 -66 -74 -89 -147 -33
-107 -29 -251 9 -327 5 -10 9 -25 9 -33 0 -8 5 -15 10 -15 6 0 10 -6 10 -12 0
-22 66 -84 110 -104 74 -34 100 -39 218 -39 98 0 125 3 132 15 15 24 13 715
-2 728 -15 12 -119 32 -157 31 -14 0 -51 -6 -81 -13z"/>
</g>
</svg>
